<?xml version="1.0" encoding="utf-8"?>
<!-- Generator: Adobe Illustrator 23.0.4, SVG Export Plug-In . SVG Version: 6.00 Build 0)  -->
<svg version="1.1" xmlns="http://www.w3.org/2000/svg" xmlns:xlink="http://www.w3.org/1999/xlink" x="0px" y="0px"
	 viewBox="0 0 237 126" style="enable-background:new 0 0 237 126;" xml:space="preserve">
<style type="text/css">
	.st0{display:none;}
	.st1{display:inline;}
	.st2{fill:#005CA8;}
</style>
<g id="Layer_2" class="st0">
	<g id="_x36_wOkyF_1_" class="st1">
		<image style="overflow:visible;" width="237" height="126" id="_x36_wOkyF" xlink:href="2DC4564FE32D2B00.html" >
		</image>
	</g>
</g>
<g id="Laag_1">
	<g>
		<g>
			<path class="st2" d="M89.3,71.7l4.9,11v-11h2.2v14.2h-3L88.6,75v10.9h-2.2V71.7H89.3z"/>
			<path class="st2" d="M101,81.3c0.1,1.9,1,2.9,2.8,2.9c0.9,0,1.7-0.2,2.6-0.8v1.9c-0.9,0.5-1.9,0.7-2.9,0.7
				c-3.1,0-4.9-1.9-4.9-5.4c0-3.3,1.6-5.5,4.4-5.5c2.3,0,3.9,1.9,3.9,5.3c0,0.1,0,0.4,0,0.9C106.9,81.3,101,81.3,101,81.3z
				 M104.6,79.6c0-1.8-0.6-2.7-1.7-2.7c-1.2,0-1.8,0.9-1.9,2.9h3.6V79.6z"/>
			<path class="st2" d="M117.5,70.6v15.3h-2.3c-0.1-0.5-0.1-1-0.1-1.6c-0.7,1.2-1.5,1.8-2.8,1.8c-2.3,0-3.6-1.9-3.6-5.4
				c0-3.6,1.3-5.5,3.6-5.5c1.2,0,2,0.5,2.6,1.6v-6.2C115,70.6,117.5,70.6,117.5,70.6z M113.2,77.2c-1.2,0-1.9,1.2-1.9,3.6
				c0,2.4,0.6,3.6,1.9,3.6c1.2,0,1.9-1,1.9-3v-1.1C115.1,78.2,114.3,77.2,113.2,77.2z"/>
			<path class="st2" d="M122,81.3c0.1,1.9,1,2.9,2.8,2.9c0.9,0,1.7-0.2,2.6-0.8v1.9c-0.9,0.5-1.9,0.7-2.9,0.7
				c-3.1,0-4.9-1.9-4.9-5.4c0-3.3,1.6-5.5,4.4-5.5c2.3,0,3.9,1.9,3.9,5.3c0,0.1,0,0.4,0,0.9C127.8,81.3,122,81.3,122,81.3z
				 M125.6,79.6c0-1.8-0.6-2.7-1.7-2.7c-1.2,0-1.8,0.9-1.9,2.9h3.6V79.6z"/>
			<path class="st2" d="M135.2,77.5c-0.2,0-0.4-0.1-0.6-0.1c-1.5,0-2.2,1-2.2,2.9v5.5h-2.4v-8.1c0-0.8,0-1.6-0.1-2.4h2.2
				c0.1,0.5,0.1,1,0.1,1.5v0.3c0.5-1.3,1.5-2,2.8-2c0,0,0.2,0,0.3,0L135.2,77.5L135.2,77.5z"/>
			<path class="st2" d="M139.6,70.6v15.3h-2.5V70.6H139.6z"/>
			<path class="st2" d="M149.9,83.8c0,0.7,0,1.4,0.1,2.1h-2.3l-0.2-1.3c-0.8,1-1.7,1.6-2.9,1.6c-1.8,0-3-1.2-3-3.2
				c0-2.3,1.7-3.6,5-3.6c0.2,0,0.5,0,1,0v-0.5c0-1.2-0.8-1.9-2.1-1.9c-1,0-1.9,0.3-2.6,1l-0.2-2c1.2-0.5,2.2-0.8,3.3-0.8
				c3.2,0,4,1.4,4,4.5L149.9,83.8L149.9,83.8z M146.6,80.8c-1.8,0-2.7,0.6-2.7,1.9c0,1,0.6,1.6,1.5,1.6c1.4,0,2-0.9,2-2.8v-0.7
				C147.2,80.9,147,80.8,146.6,80.8z"/>
			<path class="st2" d="M160.6,85.9h-2.5v-6.7c0-1.2-0.4-1.9-1.4-1.9c-1,0-1.7,0.9-1.7,2.5V86h-2.5v-8.1c0-0.8,0-1.6-0.1-2.4h2.2
				c0.1,0.5,0.1,1,0.1,1.6c0.5-1.2,1.6-1.8,2.9-1.8c1.9,0,2.9,1.2,2.9,3.5V85.9z"/>
			<path class="st2" d="M171.6,70.6v15.3h-2.2c-0.1-0.5-0.1-1-0.1-1.6c-0.7,1.2-1.5,1.8-2.8,1.8c-2.3,0-3.6-1.9-3.6-5.4
				c0-3.6,1.3-5.5,3.6-5.5c1.2,0,2,0.5,2.6,1.6v-6.2C169.1,70.6,171.6,70.6,171.6,70.6z M167.3,77.2c-1.2,0-1.9,1.2-1.9,3.6
				c0,2.4,0.6,3.6,1.9,3.6c1.2,0,1.9-1,1.9-3v-1.1C169.1,78.2,168.3,77.2,167.3,77.2z"/>
			<path class="st2" d="M179.7,77.6c-0.7-0.4-1.4-0.5-2.2-0.5c-1,0-1.5,0.4-1.5,1c0,0.8,0.5,1,1.7,1.6c1.7,0.8,2.7,1.4,2.7,3.2
				c0,1.9-1.5,3.3-3.9,3.3c-0.9,0-1.9-0.2-2.8-0.5l0.1-2.2c0.9,0.5,1.9,0.8,2.7,0.8c1.1,0,1.6-0.5,1.6-1.1c0-0.7-0.5-0.9-1.6-1.4
				c-1.9-0.9-2.8-1.6-2.8-3.3c0-1.9,1.4-3.3,3.5-3.3c1.1,0,1.9,0.2,2.5,0.4L179.7,77.6z"/>
			<path class="st2" d="M184.5,81.3c0.1,1.9,1,2.9,2.8,2.9c0.9,0,1.7-0.2,2.6-0.8v1.9c-0.9,0.5-1.9,0.7-2.9,0.7
				c-3.1,0-4.9-1.9-4.9-5.4c0-3.3,1.6-5.5,4.4-5.5c2.3,0,3.9,1.9,3.9,5.3c0,0.1,0,0.4,0,0.9C190.4,81.3,184.5,81.3,184.5,81.3z
				 M188.1,79.6c0-1.8-0.6-2.7-1.7-2.7c-1.2,0-1.8,0.9-1.9,2.9h3.6V79.6z"/>
		</g>
		<g>
			<path class="st2" d="M117.5,96.1v2.2l-5.7,9.9h5.8v2.1H109v-2.3l5.7-9.8h-5.4v-2.1H117.5z"/>
			<path class="st2" d="M128.1,105.1c0,3.6-1.6,5.4-4.6,5.4c-2.9,0-4.5-1.9-4.5-5.4s1.6-5.4,4.5-5.4
				C126.5,99.6,128.1,101.6,128.1,105.1z M121.7,105.1c0,2.4,0.7,3.6,1.9,3.6s1.9-1.2,1.9-3.6c0-2.4-0.7-3.6-1.9-3.6
				C122.4,101.4,121.7,102.7,121.7,105.1z"/>
			<path class="st2" d="M135.7,102c-0.2,0-0.4-0.1-0.6-0.1c-1.5,0-2.2,1-2.2,2.9v5.5h-2.5v-8.1c0-0.8,0-1.6-0.1-2.4h2.2
				c0.1,0.5,0.1,1,0.1,1.5v0.3c0.5-1.3,1.5-2,2.8-2c0,0,0.2,0,0.3,0V102z"/>
			<path class="st2" d="M143.2,99.9h2.3c-0.1,1.6-0.1,2.4-0.1,2.7v6.2c0,2.1-0.1,3.6-1.2,4.8c-0.8,0.9-2,1.3-3.6,1.3
				c-1.2,0-2.4-0.2-3.5-0.5l0.2-2.1c0.9,0.5,1.9,0.8,2.9,0.8c2,0,2.8-1.2,2.8-3.6c0-0.2,0-0.5,0-0.6c-0.6,1.1-1.5,1.6-2.6,1.6
				c-2.4,0-3.6-1.8-3.6-5.3c0-3.5,1.4-5.3,3.6-5.3c1.2,0,2.1,0.5,2.8,1.8C143.2,100.9,143.2,100.4,143.2,99.9z M141.2,101.5
				c-1.2,0-1.9,1.2-1.9,3.4c0,2.3,0.6,3.5,1.9,3.5c1.2,0,1.9-1,1.9-2.9v-1C143.1,102.5,142.3,101.5,141.2,101.5z"/>
			<path class="st2" d="M155.9,108.2c0,0.7,0,1.4,0.1,2.1h-2.3l-0.2-1.3c-0.8,1-1.7,1.6-2.9,1.6c-1.8,0-3-1.2-3-3.2
				c0-2.3,1.7-3.6,5-3.6c0.2,0,0.5,0,1,0v-0.5c0-1.2-0.8-1.9-2.1-1.9c-1,0-1.9,0.3-2.6,1l-0.2-2c1.2-0.5,2.2-0.8,3.3-0.8
				c3.2,0,4,1.4,4,4.5L155.9,108.2L155.9,108.2z M152.5,105.2c-1.8,0-2.7,0.6-2.7,1.9c0,1,0.6,1.6,1.5,1.6c1.4,0,2-0.9,2-2.8v-0.7
				C153.2,105.3,152.9,105.2,152.5,105.2z"/>
			<path class="st2" d="M160.9,99.9v6.7c0,1.2,0.5,1.9,1.4,1.9c1.1,0,1.8-0.9,1.8-2.6v-6.1h2.5v8.1c0,0.8,0,1.6,0.1,2.4h-2.2
				c-0.1-0.5-0.1-1.1-0.1-1.6c-0.5,1.2-1.6,1.8-2.9,1.8c-1.9,0-2.9-1.2-2.9-3.5v-7.2L160.9,99.9L160.9,99.9z"/>
			<path class="st2" d="M172.6,99.9h2v1.8h-2v5.1c0,1.3,0.2,1.9,1.2,1.9c0.3,0,0.6-0.1,0.9-0.2v1.8c-0.6,0.2-1.2,0.2-1.7,0.2
				c-2.6,0-2.9-1.3-2.9-3.8v-5.1h-1.6v-1.8h1.6v-2.2l2.5-0.8V99.9z"/>
			<path class="st2" d="M185.1,105.1c0,3.6-1.6,5.4-4.6,5.4c-2.9,0-4.5-1.9-4.5-5.4s1.6-5.4,4.5-5.4
				C183.4,99.6,185.1,101.6,185.1,105.1z M178.6,105.1c0,2.4,0.8,3.6,1.9,3.6c1.2,0,1.9-1.2,1.9-3.6c0-2.4-0.7-3.6-1.9-3.6
				C179.3,101.4,178.6,102.7,178.6,105.1z"/>
			<path class="st2" d="M192.5,102c-0.2,0-0.4-0.1-0.6-0.1c-1.5,0-2.2,1-2.2,2.9v5.5h-2.4v-8.1c0-0.8,0-1.6-0.1-2.4h2.2
				c0.1,0.5,0.1,1,0.1,1.5v0.3c0.5-1.3,1.5-2,2.8-2c0,0,0.2,0,0.3,0L192.5,102L192.5,102z"/>
			<path class="st2" d="M197.1,95.5v2.4h-2.6v-2.4H197.1z M197,99.9v10.5h-2.5V99.9H197z"/>
			<path class="st2" d="M203,99.9h2v1.8h-2v5.1c0,1.3,0.2,1.9,1.2,1.9c0.3,0,0.6-0.1,0.9-0.2v1.8c-0.6,0.2-1.2,0.2-1.7,0.2
				c-2.6,0-2.9-1.3-2.9-3.8v-5.1h-1.6v-1.8h1.6v-2.2l2.5-0.8V99.9z"/>
			<path class="st2" d="M208.8,105.8c0.1,1.9,1,2.9,2.8,2.9c0.9,0,1.7-0.2,2.6-0.8v1.9c-0.9,0.5-1.9,0.7-2.9,0.7
				c-3.1,0-4.9-1.9-4.9-5.4c0-3.3,1.6-5.5,4.4-5.5c2.3,0,3.9,1.9,3.9,5.3c0,0.1,0,0.4,0,0.9C214.7,105.8,208.8,105.8,208.8,105.8z
				 M212.4,104.1c0-1.8-0.6-2.7-1.7-2.7c-1.2,0-1.8,0.9-1.9,2.9h3.6V104.1z"/>
			<path class="st2" d="M219.4,95.5v2.4h-2.6v-2.4H219.4z M219.3,99.9v10.5h-2.5V99.9H219.3z"/>
			<path class="st2" d="M225.4,99.9h2v1.8h-2v5.1c0,1.3,0.2,1.9,1.2,1.9c0.3,0,0.6-0.1,0.9-0.2v1.8c-0.6,0.2-1.2,0.2-1.7,0.2
				c-2.6,0-2.9-1.3-2.9-3.8v-5.1h-1.6v-1.8h1.6v-2.2l2.5-0.8L225.4,99.9L225.4,99.9z"/>
		</g>
		<path class="st2" d="M46.1,51.6C45.2,53.1,44,54,42.8,54c-3.3,0.1-6-5-6.3-11.5c-0.1-1.1,0-2.2,0.1-3.2c-2.2,0-5-0.5-7.7-1.6
			c-6-2.5-9.7-7-8.4-9.9c0.2-0.6,0.7-1.1,1.2-1.5c-2-1-2.9-1.6-5-3.5C11.9,18.6,8.3,10.4,9,8.5c0.7-1.8,4,1.2,6.3,2.7
			c1.9,1.2,5.9,3.6,5.9,3.3c0-1.6,0-4.9,0-4.9c2,1.9,4.3,3.7,6.9,5.3c3.6,2.4,7.4,4.2,10.9,5.4c6.7,2.2,10.6,3,13.4,4.3
			c6.2,2.9,8.5,6.1,9.1,6.9c3,3.3,5.5,7.4,7.9,12.5l-4.9,0.9c-1.9,0.4-2.2,0.7-3.1,1.6c-1.3,1.4-5.7,6.8-11.4,14.7
			c-2.2-2-3.6-4.4-4-7.2C46.1,53.4,46.1,52.5,46.1,51.6 M80.7,45.6c2.1,1.5,5.2,3.5,5.7,4c0.3,0.3,1,1.1,1,1.9c0,3.1,0,9.9,0,11.1
			c4.6-2.6,8.1-6.1,9.6-9.9c0.6,1,1.5,1.6,2.4,1.6c2.3,0.1,4.3-3.6,4.5-8.2c0-0.8,0-1.6-0.1-2.3c1.6,0,3.6-0.4,5.5-1.2
			c4.3-1.8,7-5,6.1-7.1c-0.2-0.4-0.5-0.8-0.9-1c1.5-0.7,2.1-1.2,3.6-2.5c3.5-3.1,6.1-9,5.6-10.3c-0.5-1.3-2.9,0.9-4.6,1.9
			c-1.4,0.9-4.3,2.6-4.3,2.4c0-1.2,0-3.5,0-3.5c-1.5,1.3-3.1,2.6-5,3.8c-2.6,1.7-5.3,3-7.9,3.9c-4.8,1.6-7.7,2.2-9.6,3.1
			c-4.4,2.2-6.5,4.8-6.6,4.9C83.9,40.1,82.2,42.7,80.7,45.6z M72.9,43.5l0.2-1.8L72,41.8c-0.6,0.1-0.9-0.3-1.2-0.9
			c-0.2-0.5-0.1-0.2-0.2-0.7c-0.2-0.7-0.5-1-0.9-1.5c-0.4-0.5-0.7-1.1-0.8-1.4c-0.2-0.5-0.2-0.9-0.1-1.3c0.1-0.5,0.1-0.7-0.1-1
			c-0.2-0.4-0.3-0.5-0.7-0.9c-0.4-0.2-0.7-0.5-0.7-0.9c0-0.4,0-0.7,0.4-1.2c0.5-0.5,4.3-4.7,8.6-4.1c0.7,0.1,1.9,0.7,2.6,1.2
			c1.1,1,2.1,2.9,2.6,3.8c1.2,2.1,2.7,2.8,2.7,2.8c-1,2.3-3.6,4.4-5.2,5.2l-0.2,3.3l1.9,1.2c0,0-2.3,4.7-5.8,9.8
			C73,51.3,69.5,44,69.5,44L72.9,43.5z M27.2,81.1c2.1,0,4.6,0.5,7,1.4c1.4-1.9,1.5-2.7,2.2-4.1c0.6-1.1,0.9-1.6,1.4-2.2
			c0.7-0.9,2.4-1.9,3.1-2.8c0.5-0.6,8.1-10.7,9.1-12c1.3,1.2,3.4,2.5,5.2,3.3c-3.2,3.3-8.3,7.7-9.6,8.8c-1.1,0.9-1.1,1.1-1.5,1.9
			c-0.3,0.7-0.5,2.2-0.9,3.2s-0.8,2.3-1.7,2.7c-0.8,0.3-2.3,0.9-2.8,1.1c-0.7,0.2-0.9,0.7-1.5,1.5c2.2,1.2,4,2.5,5.4,4l-2.1,2.6
			c-1.2-1.2-2.8-2.4-4.6-3.4l-23,27.9L8.5,118l1.5-4.5l21.5-28.7c-2.2-0.8-4.4-1.2-6.3-1.2L27.2,81.1z"/>
	</g>
</g>
</svg>
