<?xml version="1.0" encoding="utf-8"?>
<!-- Generator: Adobe Illustrator 25.1.0, SVG Export Plug-In . SVG Version: 6.00 Build 0)  -->
<svg version="1.1" id="Layer_1" xmlns="http://www.w3.org/2000/svg" xmlns:xlink="http://www.w3.org/1999/xlink" x="0px"
     y="0px"
     viewBox="0 0 64 64" style="enable-background:new 0 0 64 64;" xml:space="preserve">
<style type="text/css">
	.st0{fill:#6C757D;}
	.st1{fill:#E9ECEF;}
	.st2{fill:#FFEA29;}
	.st3{fill:#673327;}
	.st4{fill:#FFFFFF;}
</style>
    <g>
		<path class="st0" d="M40,26c0,3.1-1,6-2.7,8.3L40,37l-3,3l-2.7-2.7C32,39,29.1,40,26,40c-7.7,0-14-6.3-14-14s6.3-14,14-14 S40,18.3,40,26z"/>
        <path class="st1" d="M26,14.9c6.1,0,11.1,5,11.1,11.1s-5,11.1-11.1,11.1s-11.1-5-11.1-11.1S19.9,14.9,26,14.9z"/>
        <polygon class="st2" points="44,40 40,44 35.2,39.2 35.8,38.8 38.8,35.8 39.2,35.2"/>
        <rect x="42.1" y="37.9" transform="matrix(0.7071 -0.7071 0.7071 0.7071 -18.631 44.9786)" class="st3" width="5.7" height="14.1"/>
        <path class="st4" d="M24.1,17.3c0.5,0,1,0.4,1,1c0,0.5-0.4,1-1,1c-2.3,0-4.8,2.5-4.8,4.8c0,0.5-0.4,1-1,1c-0.5,0-1-0.4-1-1 C17.3,20.7,20.6,17.3,24.1,17.3z"/>
	</g>
</svg>
