<?xml version="1.0" encoding="utf-8"?>
<!-- Generator: Adobe Illustrator 22.1.0, SVG Export Plug-In . SVG Version: 6.00 Build 0)  -->
<svg version="1.1" id="Laag_1" xmlns="http://www.w3.org/2000/svg" xmlns:xlink="http://www.w3.org/1999/xlink" x="0px" y="0px"
	 viewBox="0 0 284.1 141.9" style="enable-background:new 0 0 284.1 141.9;" xml:space="preserve">
<style type="text/css">
	.st0{fill:#005CA8;}
</style>
<g>
	<path class="st0" d="M105.5,83.5l6.3,14.2V83.5h2.9v18.3h-3.9l-6.2-14.1v14.1h-2.9V83.5H105.5z"/>
	<path class="st0" d="M120.7,95.9c0.1,2.5,1.3,3.8,3.6,3.8c1.1,0,2.2-0.3,3.3-1v2.5c-1.2,0.6-2.4,0.9-3.8,0.9c-4,0-6.3-2.5-6.3-7
		c0-4.3,2.1-7.1,5.7-7.1c3,0,5.1,2.5,5.1,6.8c0,0.1,0,0.5,0,1.1H120.7z M125.3,93.7c0-2.3-0.8-3.5-2.2-3.5c-1.5,0-2.3,1.2-2.5,3.7
		h4.7V93.7z"/>
	<path class="st0" d="M142,82.1v19.7H139c-0.1-0.6-0.1-1.3-0.1-2c-0.9,1.6-2,2.3-3.6,2.3c-3,0-4.7-2.4-4.7-7c0-4.7,1.7-7.1,4.7-7.1
		c1.5,0,2.6,0.7,3.4,2.1v-8H142z M136.4,90.5c-1.6,0-2.4,1.5-2.4,4.6c0,3.1,0.8,4.6,2.4,4.6c1.5,0,2.4-1.3,2.4-3.9v-1.4
		C138.8,91.8,137.8,90.5,136.4,90.5z"/>
	<path class="st0" d="M147.7,95.9c0.1,2.5,1.3,3.8,3.6,3.8c1.1,0,2.2-0.3,3.3-1v2.5c-1.2,0.6-2.4,0.9-3.8,0.9c-4,0-6.3-2.5-6.3-7
		c0-4.3,2.1-7.1,5.7-7.1c3,0,5.1,2.5,5.1,6.8c0,0.1,0,0.5,0,1.1H147.7z M152.4,93.7c0-2.3-0.8-3.5-2.2-3.5c-1.5,0-2.3,1.2-2.5,3.7
		h4.7V93.7z"/>
	<path class="st0" d="M164.8,91c-0.3,0-0.5-0.1-0.8-0.1c-2,0-2.9,1.3-2.9,3.8v7.1H158V91.4c0-1,0-2-0.1-3.1h2.9
		c0.1,0.7,0.1,1.3,0.1,1.9v0.4c0.7-1.7,1.9-2.6,3.6-2.6c0,0,0.2,0,0.4,0V91z"/>
	<path class="st0" d="M170.5,82.1v19.7h-3.2V82.1H170.5z"/>
	<path class="st0" d="M183.8,99.1c0,0.9,0,1.8,0.1,2.7h-3l-0.2-1.7c-1,1.3-2.2,2-3.8,2c-2.3,0-3.9-1.6-3.9-4.1c0-3,2.2-4.6,6.4-4.6
		c0.3,0,0.7,0,1.3,0v-0.6c0-1.6-1-2.5-2.7-2.5c-1.3,0-2.4,0.4-3.4,1.3l-0.2-2.6c1.5-0.7,2.9-1,4.3-1c4.1,0,5.2,1.8,5.2,5.8V99.1z
		 M179.5,95.2c-2.3,0-3.5,0.8-3.5,2.5c0,1.3,0.8,2.1,2,2.1c1.8,0,2.6-1.2,2.6-3.6v-0.9C180.3,95.3,180,95.2,179.5,95.2z"/>
	<path class="st0" d="M197.6,101.8h-3.2v-8.7c0-1.6-0.5-2.4-1.8-2.4c-1.3,0-2.2,1.1-2.2,3.2v8h-3.2V91.4c0-1,0-2-0.1-3.1h2.9
		c0.1,0.7,0.1,1.3,0.1,2c0.7-1.5,2.1-2.3,3.7-2.3c2.4,0,3.8,1.5,3.8,4.5V101.8z"/>
	<path class="st0" d="M211.8,82.1v19.7h-2.9c-0.1-0.6-0.1-1.3-0.1-2c-0.9,1.6-2,2.3-3.6,2.3c-3,0-4.7-2.4-4.7-7
		c0-4.7,1.7-7.1,4.7-7.1c1.5,0,2.6,0.7,3.4,2.1v-8H211.8z M206.2,90.5c-1.6,0-2.4,1.5-2.4,4.6c0,3.1,0.8,4.6,2.4,4.6
		c1.5,0,2.4-1.3,2.4-3.9v-1.4C208.6,91.8,207.6,90.5,206.2,90.5z"/>
	<path class="st0" d="M222.3,91.1c-0.9-0.5-1.8-0.7-2.8-0.7c-1.3,0-2,0.5-2,1.3c0,1,0.7,1.3,2.2,2c2.2,1,3.5,1.8,3.5,4.1
		c0,2.5-1.9,4.2-5,4.2c-1.2,0-2.4-0.2-3.6-0.7l0.1-2.8c1.2,0.7,2.4,1,3.5,1c1.4,0,2.1-0.6,2.1-1.4c0-0.9-0.7-1.2-2.1-1.8
		c-2.4-1.1-3.6-2.1-3.6-4.2c0-2.5,1.8-4.2,4.5-4.2c1.4,0,2.5,0.2,3.2,0.5L222.3,91.1z"/>
	<path class="st0" d="M228.5,95.9c0.1,2.5,1.3,3.8,3.6,3.8c1.1,0,2.2-0.3,3.3-1v2.5c-1.2,0.6-2.4,0.9-3.8,0.9c-4,0-6.3-2.5-6.3-7
		c0-4.3,2.1-7.1,5.7-7.1c3,0,5.1,2.5,5.1,6.8c0,0.1,0,0.5,0,1.1H228.5z M233.1,93.7c0-2.3-0.8-3.5-2.2-3.5c-1.5,0-2.3,1.2-2.5,3.7
		h4.7V93.7z"/>
</g>
<g>
	<path class="st0" d="M141.9,115v2.9l-7.4,12.8h7.5v2.7H131v-3l7.3-12.7h-7V115H141.9z"/>
	<path class="st0" d="M155.7,126.5c0,4.6-2.1,7-5.9,7c-3.7,0-5.8-2.5-5.8-7c0-4.5,2.1-7,5.8-7C153.6,119.5,155.7,122,155.7,126.5z
		 M147.4,126.5c0,3.1,0.9,4.6,2.5,4.6c1.6,0,2.5-1.6,2.5-4.6c0-3.1-0.9-4.7-2.5-4.7C148.3,121.8,147.4,123.5,147.4,126.5z"/>
	<path class="st0" d="M165.4,122.5c-0.3,0-0.5-0.1-0.8-0.1c-2,0-2.9,1.3-2.9,3.8v7.1h-3.2v-10.4c0-1,0-2-0.1-3.1h2.9
		c0.1,0.7,0.1,1.3,0.1,1.9v0.4c0.7-1.7,1.9-2.6,3.6-2.6c0,0,0.2,0,0.4,0V122.5z"/>
	<path class="st0" d="M175.2,119.8h3c-0.1,2-0.1,3.1-0.1,3.5v8c0,2.7-0.1,4.6-1.6,6.2c-1,1.1-2.6,1.7-4.7,1.7
		c-1.6,0-3.1-0.2-4.5-0.7l0.2-2.7c1.2,0.7,2.5,1,3.8,1c2.6,0,3.6-1.5,3.6-4.6c0-0.3,0-0.6,0-0.8c-0.8,1.4-1.9,2-3.4,2
		c-3.1,0-4.7-2.3-4.7-6.9c0-4.5,1.8-6.9,4.7-6.9c1.6,0,2.7,0.7,3.6,2.3C175.1,121.1,175.2,120.5,175.2,119.8z M172.5,121.9
		c-1.6,0-2.4,1.5-2.4,4.4c0,3,0.8,4.5,2.4,4.5c1.5,0,2.5-1.3,2.5-3.8v-1.3C175,123.2,174,121.9,172.5,121.9z"/>
	<path class="st0" d="M191.5,130.6c0,0.9,0,1.8,0.1,2.7h-3l-0.2-1.7c-1,1.3-2.2,2-3.8,2c-2.3,0-3.9-1.6-3.9-4.1c0-3,2.2-4.6,6.4-4.6
		c0.3,0,0.7,0,1.3,0v-0.6c0-1.6-1-2.5-2.7-2.5c-1.3,0-2.4,0.4-3.4,1.3l-0.2-2.6c1.5-0.7,2.9-1,4.3-1c4.1,0,5.2,1.8,5.2,5.8V130.6z
		 M187.2,126.7c-2.3,0-3.5,0.8-3.5,2.5c0,1.3,0.8,2.1,2,2.1c1.8,0,2.6-1.2,2.6-3.6v-0.9C188.1,126.8,187.7,126.7,187.2,126.7z"/>
	<path class="st0" d="M198,119.8v8.7c0,1.6,0.6,2.4,1.8,2.4c1.4,0,2.3-1.2,2.3-3.3v-7.9h3.2v10.4c0,1,0,2,0.1,3.1h-2.9
		c-0.1-0.7-0.1-1.4-0.1-2c-0.7,1.5-2.1,2.3-3.7,2.3c-2.4,0-3.8-1.5-3.8-4.5v-9.3H198z"/>
	<path class="st0" d="M213.1,119.8h2.6v2.3h-2.6v6.6c0,1.7,0.2,2.5,1.5,2.5c0.4,0,0.8-0.1,1.2-0.2v2.3c-0.8,0.2-1.5,0.3-2.2,0.3
		c-3.3,0-3.7-1.7-3.7-4.9v-6.6h-2.1v-2.3h2.1V117l3.2-1V119.8z"/>
	<path class="st0" d="M229.2,126.5c0,4.6-2.1,7-5.9,7c-3.7,0-5.8-2.5-5.8-7c0-4.5,2.1-7,5.8-7C227.1,119.5,229.2,122,229.2,126.5z
		 M220.9,126.5c0,3.1,1,4.6,2.5,4.6c1.6,0,2.5-1.6,2.5-4.6c0-3.1-0.9-4.7-2.5-4.7C221.8,121.8,220.9,123.5,220.9,126.5z"/>
	<path class="st0" d="M238.8,122.5c-0.3,0-0.5-0.1-0.8-0.1c-2,0-2.9,1.3-2.9,3.8v7.1H232v-10.4c0-1,0-2-0.1-3.1h2.9
		c0.1,0.7,0.1,1.3,0.1,1.9v0.4c0.7-1.7,1.9-2.6,3.6-2.6c0,0,0.2,0,0.4,0V122.5z"/>
	<path class="st0" d="M244.7,114.1v3.1h-3.3v-3.1H244.7z M244.6,119.8v13.5h-3.2v-13.5H244.6z"/>
	<path class="st0" d="M252.4,119.8h2.6v2.3h-2.6v6.6c0,1.7,0.2,2.5,1.5,2.5c0.4,0,0.8-0.1,1.2-0.2v2.3c-0.8,0.2-1.5,0.3-2.2,0.3
		c-3.3,0-3.7-1.7-3.7-4.9v-6.6h-2.1v-2.3h2.1V117l3.2-1V119.8z"/>
	<path class="st0" d="M259.9,127.4c0.1,2.5,1.3,3.8,3.6,3.8c1.1,0,2.2-0.3,3.3-1v2.5c-1.2,0.6-2.4,0.9-3.8,0.9c-4,0-6.3-2.5-6.3-7
		c0-4.3,2.1-7.1,5.7-7.1c3,0,5.1,2.5,5.1,6.8c0,0.1,0,0.5,0,1.1H259.9z M264.5,125.2c0-2.3-0.8-3.5-2.2-3.5c-1.5,0-2.3,1.2-2.5,3.7
		h4.7V125.2z"/>
	<path class="st0" d="M273.5,114.1v3.1h-3.3v-3.1H273.5z M273.4,119.8v13.5h-3.2v-13.5H273.4z"/>
	<path class="st0" d="M281.3,119.8h2.6v2.3h-2.6v6.6c0,1.7,0.2,2.5,1.5,2.5c0.4,0,0.8-0.1,1.2-0.2v2.3c-0.8,0.2-1.5,0.3-2.2,0.3
		c-3.3,0-3.7-1.7-3.7-4.9v-6.6H276v-2.3h2.1V117l3.2-1V119.8z"/>
</g>
<path class="st0" d="M48.5,56.3c-1.2,1.9-2.7,3-4.3,3c-4.2,0.1-7.8-6.5-8.1-14.8c-0.1-1.4,0-2.8,0.1-4.1c-2.9,0-6.4-0.7-9.9-2.1
	c-7.7-3.2-12.5-9-10.9-12.8c0.3-0.8,0.9-1.4,1.6-1.9c-2.6-1.3-3.8-2.1-6.5-4.5C4.3,13.7-0.3,3.1,0.6,0.7c0.9-2.3,5.2,1.6,8.2,3.5
	c2.5,1.6,7.6,4.7,7.6,4.3c0-2.1,0-6.3,0-6.3C19,4.7,22,7,25.3,9.1c4.7,3.1,9.6,5.4,14.1,7C48,19,53.1,20,56.7,21.6
	c8,3.7,11,7.9,11.8,8.9c3.9,4.3,7.1,9.5,10.2,16.1l-6.3,1.2c-2.4,0.5-2.9,0.9-4,2.1c-1.7,1.8-7.3,8.8-14.7,19
	c-2.9-2.6-4.7-5.7-5.2-9.3C48.4,58.5,48.4,57.4,48.5,56.3 M93.2,48.5c2.7,1.9,6.7,4.5,7.3,5.1c0.4,0.4,1.3,1.4,1.3,2.5
	c0,4,0,12.8,0,14.3c6-3.4,10.5-7.9,12.4-12.8c0.8,1.3,1.9,2.1,3.1,2.1c3,0.1,5.6-4.7,5.8-10.6c0-1,0-2-0.1-3c2.1,0,4.6-0.5,7.1-1.5
	c5.5-2.3,9-6.5,7.9-9.2c-0.2-0.5-0.6-1-1.2-1.3c1.9-0.9,2.7-1.5,4.7-3.2c4.5-4,7.9-11.6,7.2-13.3c-0.7-1.7-3.7,1.1-5.9,2.5
	c-1.8,1.1-5.5,3.4-5.5,3.1c0-1.6,0-4.5,0-4.5c-1.9,1.7-4,3.4-6.4,4.9c-3.4,2.2-6.9,3.9-10.2,5c-6.2,2.1-9.9,2.8-12.4,4
	c-5.7,2.8-8.4,6.2-8.5,6.3C97.3,41.4,95.1,44.8,93.2,48.5z M83.1,45.8l0.2-2.3l-1.4,0.1c-0.8,0.1-1.2-0.4-1.5-1.2
	c-0.2-0.7-0.1-0.3-0.3-0.9c-0.3-0.9-0.7-1.3-1.1-1.9c-0.5-0.6-0.9-1.4-1-1.8c-0.2-0.7-0.2-1.1-0.1-1.7c0.1-0.6,0.1-0.9-0.1-1.3
	c-0.2-0.5-0.4-0.7-0.9-1.1c-0.5-0.3-0.9-0.6-0.9-1.1c0-0.5,0-0.9,0.5-1.5c0.6-0.7,5.6-6.1,11.1-5.3c0.9,0.1,2.5,0.9,3.3,1.6
	c1.4,1.3,2.7,3.7,3.4,4.9c1.5,2.7,3.5,3.6,3.5,3.6c-1.3,3-4.6,5.7-6.7,6.7l-0.3,4.2l2.4,1.6c0,0-3,6-7.5,12.7
	c-2.5-5.2-7-14.6-7-14.6L83.1,45.8z M24.1,94.3c2.7,0,5.9,0.6,9.1,1.8c1.8-2.4,1.9-3.5,2.9-5.3c0.8-1.4,1.2-2,1.8-2.8
	c0.9-1.1,3.1-2.4,4-3.6c0.6-0.8,10.4-13.8,11.7-15.5c1.7,1.5,4.4,3.2,6.7,4.3c-4.1,4.2-10.7,9.9-12.4,11.4c-1.4,1.1-1.4,1.4-1.9,2.4
	c-0.4,0.9-0.7,2.8-1.1,4.1c-0.4,1.3-1,3-2.2,3.5c-1,0.4-3,1.2-3.6,1.4c-0.9,0.3-1.1,0.9-2,1.9c2.8,1.5,5.2,3.2,7,5.1l-2.7,3.3
	c-1.6-1.6-3.6-3.1-5.9-4.4l-29.7,36l-5.9,4l1.9-5.8l27.8-37c-2.9-1-5.7-1.5-8.1-1.5L24.1,94.3z"/>
</svg>
